<?xml version="1.0" encoding="UTF-8"?><svg id="Layer_1" xmlns="http://www.w3.org/2000/svg" xmlns:xlink="http://www.w3.org/1999/xlink" viewBox="0 0 184 64"><defs><linearGradient id="linear-gradient" x1="19.62" y1="12.3" x2="19.62" y2="40.58" gradientUnits="userSpaceOnUse"><stop offset=".07" stop-color="#24c0e3"/><stop offset=".22" stop-color="#24b9df"/><stop offset=".44" stop-color="#24a7d5"/><stop offset=".7" stop-color="#258ac4"/><stop offset=".98" stop-color="#2661ad"/><stop offset="1" stop-color="#275eab"/></linearGradient><linearGradient id="linear-gradient-2" x1="112.15" y1="10.67" x2="160.54" y2="51.03" gradientTransform="translate(143.23 -108.94) rotate(79.77)" gradientUnits="userSpaceOnUse"><stop offset="0" stop-color="#f05031"/><stop offset=".08" stop-color="#f15c2d"/><stop offset=".28" stop-color="#f37427"/><stop offset=".49" stop-color="#f48422"/><stop offset=".71" stop-color="#f58e1f"/><stop offset="1" stop-color="#f6921f"/></linearGradient><radialGradient id="radial-gradient" cx="136.79" cy="31.23" fx="136.79" fy="31.23" r="24.67" gradientTransform="translate(135.76 -109.08) rotate(76.72)" gradientUnits="userSpaceOnUse"><stop offset="0" stop-color="#5665af"/><stop offset=".25" stop-color="#5261aa"/><stop offset=".52" stop-color="#48569d"/><stop offset=".8" stop-color="#384487"/><stop offset="1" stop-color="#293474"/></radialGradient><linearGradient id="linear-gradient-3" x1="102.58" y1="55.12" x2="171" y2="55.12" gradientUnits="userSpaceOnUse"><stop offset="0" stop-color="#293474"/><stop offset=".52" stop-color="#5665af"/><stop offset="1" stop-color="#293474"/></linearGradient><linearGradient id="linear-gradient-4" x1="83.53" y1="8.3" x2="83.53" y2="24.16" gradientTransform="translate(10 26.54)" gradientUnits="userSpaceOnUse"><stop offset="0" stop-color="#fff"/><stop offset=".96" stop-color="#231f20"/></linearGradient><linearGradient id="linear-gradient-5" x1="93.53" y1="-1.46" x2="93.53" y2="14.4" gradientTransform="translate(0 13.69)" xlink:href="#linear-gradient-4"/></defs><polygon points="24.92 8.34 3.72 8.34 3.72 46.5 13.29 46.5 12.31 54.71 20.79 46.55 35.52 46.55 35.52 42.53 7.53 42.53 7.53 12.36 24.98 12.36 24.92 8.34" fill="url(#linear-gradient)"/><rect x="9.56" y="13.74" width="6.44" height="7.86" fill="#dc3c26"/><rect x="9.56" y="23.68" width="12.56" height="7.51" fill="#eb8923"/><rect x="9.56" y="33.28" width="20.09" height="7.81" fill="#f6c620"/><path d="m23.14,19.93h-3.67l-.72,1.7h-1.41l3.31-7.35h1.34l3.32,7.35h-1.43l-.73-1.7Zm-.45-1.07l-1.39-3.21-1.38,3.21h2.76Z" fill="#231f20"/><path d="m26.12,13.84h1.31v7.79h-1.31v-7.79Z" fill="#231f20"/><path d="m29.15,13.84h1.31v7.79h-1.31v-7.79Z" fill="#231f20"/><path d="m32.01,14.31c0-.44.36-.79.84-.79s.84.33.84.76c0,.46-.35.82-.84.82s-.84-.35-.84-.79Zm.18,1.71h1.31v5.61h-1.31v-5.61Z" fill="#231f20"/><path d="m40.47,19.25h-4.4c.16.82.84,1.34,1.82,1.34.63,0,1.12-.2,1.52-.61l.7.81c-.5.6-1.29.91-2.26.91-1.88,0-3.1-1.21-3.1-2.88s1.23-2.87,2.9-2.87,2.83,1.14,2.83,2.9c0,.1-.01.26-.02.39Zm-4.41-.87h3.18c-.1-.81-.72-1.36-1.58-1.36s-1.47.55-1.6,1.36Z" fill="#231f20"/><path d="m47.25,13.84v7.79h-1.26v-.72c-.44.54-1.09.8-1.86.8-1.63,0-2.83-1.13-2.83-2.88s1.21-2.87,2.83-2.87c.72,0,1.36.24,1.81.76v-2.88h1.31Zm-1.29,4.99c0-1.07-.72-1.75-1.67-1.75s-1.67.68-1.67,1.75.72,1.75,1.67,1.75,1.67-.68,1.67-1.75Z" fill="#231f20"/><path d="m31.02,31.03v-4.78s-2.38,3.96-2.38,3.96h-.6l-2.37-3.89v4.72h-1.28v-7.21h1.1l2.86,4.78,2.81-4.78h1.1v7.21s-1.26,0-1.26,0Z" fill="#231f20"/><path d="m38.72,27.8v3.22h-1.22v-.67c-.31.47-.91.74-1.73.74-1.26,0-2.05-.69-2.05-1.65s.62-1.64,2.29-1.64h1.42v-.08c0-.75-.45-1.19-1.37-1.19-.62,0-1.26.21-1.67.55l-.5-.94c.59-.45,1.44-.68,2.33-.68,1.59,0,2.5.75,2.5,2.34Zm-1.29,1.5v-.64h-1.33c-.88,0-1.11.33-1.11.73,0,.46.39.76,1.05.76s1.17-.29,1.39-.85Z" fill="#231f20"/><path d="m43.55,25.46v1.23c-.11-.02-.21-.03-.3-.03-.98,0-1.6.58-1.6,1.7v2.67h-1.29v-5.5h1.23v.8c.37-.58,1.04-.87,1.96-.87Z" fill="#231f20"/><path d="m46.89,28.67l-.96.91v1.45h-1.29v-7.64h1.29v4.61l2.67-2.47h1.54l-2.3,2.31,2.51,3.19h-1.57l-1.91-2.36Z" fill="#231f20"/><path d="m56.12,28.69h-4.32c.15.8.82,1.32,1.78,1.32.62,0,1.1-.2,1.49-.6l.69.79c-.49.59-1.27.9-2.21.9-1.84,0-3.04-1.18-3.04-2.82s1.21-2.81,2.84-2.81,2.78,1.12,2.78,2.84c0,.1-.01.26-.02.38Zm-4.33-.85h3.12c-.1-.79-.71-1.34-1.56-1.34s-1.44.54-1.57,1.34Z" fill="#231f20"/><path d="m60.68,30.73c-.31.25-.77.37-1.24.37-1.21,0-1.9-.64-1.9-1.85v-2.65h-.91v-1.03h.91v-1.26h1.29v1.26h1.47v1.03h-1.47v2.62c0,.54.27.82.76.82.27,0,.53-.07.72-.23l.36.92Z" fill="#231f20"/><path d="m36.36,40.99l-1.53-2.19c-.1.01-.19.01-.29.01h-1.69v2.18h-1.39v-7.47h3.07c1.96,0,3.18,1,3.18,2.66,0,1.13-.58,1.96-1.59,2.36l1.72,2.45h-1.49Zm-1.88-6.29h-1.62v2.98h1.62c1.22,0,1.85-.55,1.85-1.49s-.63-1.48-1.85-1.48Z" fill="#231f20"/><path d="m44.48,38.57h-4.47c.16.83.85,1.37,1.84,1.37.64,0,1.14-.2,1.55-.62l.71.82c-.51.61-1.31.93-2.29.93-1.91,0-3.15-1.23-3.15-2.92s1.25-2.91,2.94-2.91,2.88,1.16,2.88,2.94c0,.11-.01.27-.02.39Zm-4.48-.89h3.23c-.11-.82-.74-1.39-1.61-1.39s-1.49.55-1.62,1.39Z" fill="#231f20"/><path d="m45.14,40.43l.51-1.01c.5.33,1.27.56,1.98.56.84,0,1.19-.23,1.19-.63,0-1.09-3.52-.06-3.52-2.34,0-1.08.97-1.78,2.51-1.78.76,0,1.62.18,2.13.49l-.51,1.01c-.54-.32-1.09-.43-1.63-.43-.81,0-1.19.27-1.19.64,0,1.15,3.52.13,3.52,2.36,0,1.07-.98,1.76-2.58,1.76-.95,0-1.9-.28-2.41-.64Z" fill="#231f20"/><path d="m56.61,38.57h-4.47c.16.83.85,1.37,1.84,1.37.64,0,1.14-.2,1.55-.62l.71.82c-.51.61-1.31.93-2.29.93-1.91,0-3.15-1.23-3.15-2.92s1.25-2.91,2.94-2.91,2.88,1.16,2.88,2.94c0,.11-.01.27-.02.39Zm-4.48-.89h3.23c-.11-.82-.74-1.39-1.61-1.39s-1.49.55-1.62,1.39Z" fill="#231f20"/><path d="m62.53,37.65v3.34h-1.26v-.69c-.32.49-.94.77-1.79.77-1.3,0-2.12-.71-2.12-1.71s.64-1.7,2.37-1.7h1.47v-.08c0-.78-.47-1.24-1.42-1.24-.64,0-1.3.21-1.73.57l-.52-.97c.61-.47,1.49-.7,2.41-.7,1.64,0,2.59.78,2.59,2.42Zm-1.33,1.56v-.66h-1.38c-.91,0-1.15.34-1.15.76,0,.48.41.79,1.09.79s1.22-.3,1.44-.89Z" fill="#231f20"/><path d="m67.53,35.23v1.27c-.12-.02-.21-.03-.31-.03-1.01,0-1.65.6-1.65,1.76v2.76h-1.33v-5.7h1.27v.83c.38-.6,1.08-.9,2.03-.9Z" fill="#231f20"/><path d="m68.14,38.14c0-1.71,1.28-2.91,3.08-2.91,1.11,0,1.99.46,2.43,1.32l-1.02.6c-.34-.54-.85-.79-1.42-.79-.98,0-1.73.68-1.73,1.78s.75,1.78,1.73,1.78c.57,0,1.08-.25,1.42-.79l1.02.6c-.44.85-1.32,1.33-2.43,1.33-1.8,0-3.08-1.22-3.08-2.92Z" fill="#231f20"/><path d="m80.36,37.73v3.26h-1.33v-3.09c0-1.01-.5-1.5-1.35-1.5-.95,0-1.59.58-1.59,1.72v2.88h-1.33v-7.91h1.33v2.88c.44-.47,1.11-.73,1.9-.73,1.37,0,2.38.78,2.38,2.5Z" fill="#231f20"/><circle cx="86.24" cy="38.67" r="3.92" fill="none" stroke="#231f20" stroke-miterlimit="10" stroke-width=".75"/><path d="m85.44,38.92v1.86h-.52v-4.47h1.23c.55,0,.95.1,1.22.32.26.21.39.52.39.95,0,.59-.3.99-.9,1.2l1.21,2.01h-.61l-1.08-1.86h-.93Zm0-.44h.71c.37,0,.64-.07.81-.22s.26-.36.26-.66-.09-.51-.26-.64c-.17-.13-.45-.2-.84-.2h-.68v1.71Z" fill="#231f20" stroke="#231f20" stroke-miterlimit="10" stroke-width=".5"/><circle cx="136.79" cy="31.23" r="30.47" transform="translate(81.76 160.3) rotate(-79.77)" fill="url(#linear-gradient-2)"/><path d="m156.63,31.23c0,10.95-8.88,19.83-19.83,19.83s-19.83-8.88-19.83-19.83,8.88-19.83,19.83-19.83,19.83,8.88,19.83,19.83Z" fill="#fff"/><circle cx="136.79" cy="31.23" r="18.66" transform="translate(74.97 157.19) rotate(-76.72)" fill="url(#radial-gradient)"/><path d="m112.75,23.68s-.08.36-.23,1.04c-.14.68-.31,1.68-.43,2.97-.11,1.28-.16,2.84-.01,4.62,0,.11.02.23.03.34,0,.11.03.22.04.34.03.22.06.45.08.68.02.23.07.47.11.7.04.24.08.48.12.72.05.24.11.49.16.73.06.25.1.5.18.75.07.25.14.5.21.76.02.06.03.13.05.19.02.06.04.13.06.19.04.13.08.25.13.38.04.13.08.26.13.39.02.06.04.13.06.19.02.06.05.13.07.19.1.26.2.52.29.78.05.13.1.26.16.39.06.13.11.26.17.39.06.13.11.26.17.39.06.13.13.26.19.39.49,1.05,1.1,2.09,1.78,3.11.09.13.17.25.26.38.09.13.17.26.27.38.19.25.37.5.56.75.4.49.79.98,1.24,1.45.87.94,1.82,1.85,2.86,2.68,1.04.82,2.16,1.58,3.35,2.25.15.08.3.17.45.25l.11.06.11.06.23.11c.15.08.31.15.46.23l.23.11.24.1c.32.13.63.28.95.41.32.12.65.25.97.37.33.11.66.22.99.33l.12.04.13.03.25.07.5.14.25.07.26.06.51.11.26.06c.09.02.17.04.26.05l.52.09.52.09c.17.02.35.04.52.07.35.04.7.1,1.05.11l.53.04c.18.01.35.03.53.03l1.02.02,1.11-.03c.19,0,.35-.02.53-.03l.51-.04c.34-.02.69-.07,1.04-.11.17-.02.35-.04.52-.07l.52-.09c1.38-.24,2.74-.59,4.05-1.05.32-.12.65-.25.97-.37l.12-.05.12-.05.24-.1c.16-.07.32-.14.47-.21l.24-.1.23-.11c.15-.08.31-.15.46-.23l.23-.11.11-.06.11-.06c.15-.08.3-.17.45-.25,1.19-.67,2.31-1.43,3.35-2.25,1.04-.83,1.99-1.74,2.86-2.68.44-.47.84-.96,1.24-1.45.19-.25.38-.5.56-.75.1-.12.18-.25.27-.38.09-.13.17-.25.26-.38.68-1.02,1.29-2.06,1.78-3.11.06-.13.13-.26.19-.39.06-.13.11-.26.17-.39.06-.13.11-.26.17-.39.06-.13.11-.26.16-.39.1-.26.2-.52.29-.78.02-.06.05-.13.07-.19.02-.07.04-.13.06-.2.04-.13.08-.26.13-.39.04-.13.08-.26.13-.38.02-.06.04-.13.06-.19.02-.06.03-.13.05-.19.07-.26.14-.51.21-.76.07-.25.12-.5.18-.75.05-.25.11-.49.16-.73.04-.24.08-.49.12-.72.04-.24.09-.47.11-.71.03-.23.06-.46.08-.69.01-.11.03-.23.04-.34,0-.11.02-.22.03-.33.02-.22.03-.44.05-.65,0-.05,0-.11.01-.16v-.08s0,0,0-.01v-.02s0-.04,0-.04c0-.11,0-.21,0-.32,0-.21.01-.42.02-.62,0-.2,0-.39,0-.59,0-.77-.05-1.48-.1-2.12-.12-1.28-.3-2.29-.43-2.97-.15-.68-.23-1.04-.23-1.04,0,0,.03.09.1.26.06.17.17.42.28.75.05.17.12.35.18.56.03.1.07.21.1.32.03.11.07.23.1.35.15.49.29,1.06.42,1.7.13.65.26,1.36.35,2.16.02.2.04.4.07.61.01.2.03.41.04.62,0,.11.01.21.02.32v.09s0,.08,0,.08c0,.06,0,.11,0,.17,0,.22.01.45.02.68,0,.12,0,.23,0,.35,0,.12,0,.24,0,.35,0,.24-.02.48-.02.73,0,.25-.03.49-.05.75-.02.25-.04.51-.06.77-.03.26-.07.52-.1.78-.04.26-.07.53-.12.8-.05.27-.1.54-.16.82-.01.07-.03.14-.04.21-.02.07-.03.14-.05.21-.03.14-.07.28-.1.42-.03.14-.07.28-.1.42-.02.07-.03.14-.05.21-.02.07-.04.14-.06.21-.08.28-.17.56-.26.85-.04.14-.09.29-.14.43-.05.14-.1.29-.15.43-.05.14-.1.29-.15.43-.05.15-.12.29-.17.43-.12.29-.24.58-.36.87-.14.29-.27.57-.41.86l-.1.22-.11.21c-.08.14-.15.29-.23.43-.08.14-.16.29-.23.43-.08.14-.17.28-.25.43-.09.14-.17.28-.26.43-.09.14-.17.29-.27.43-.19.28-.38.56-.57.84-.4.55-.81,1.11-1.27,1.64-.11.13-.22.27-.34.4-.12.13-.24.26-.36.39-.24.26-.47.53-.73.77-.13.13-.25.25-.38.38l-.19.19-.1.09-.1.09c-.27.24-.54.48-.81.73-1.11.95-2.32,1.81-3.61,2.58-.16.1-.32.19-.49.29l-.12.07-.13.07-.25.13c-.17.09-.33.18-.5.27l-.25.13-.26.12c-.17.08-.35.16-.52.24l-.26.12-.13.06-.13.05c-.35.14-.71.29-1.07.43-1.44.53-2.94.95-4.47,1.23l-.57.1c-.19.03-.39.05-.58.08-.39.05-.77.11-1.17.13l-.6.05c-.2.01-.4.03-.58.04l-1.11.03-1.2-.03c-.2,0-.39-.02-.58-.04l-.58-.05c-.39-.02-.78-.08-1.16-.13-.19-.03-.39-.05-.58-.08l-.57-.1c-1.53-.27-3.03-.69-4.47-1.23-.36-.14-.71-.29-1.07-.43l-.13-.05-.13-.06-.26-.12c-.17-.08-.35-.16-.52-.24l-.26-.12-.25-.13c-.17-.09-.34-.18-.5-.27l-.25-.13-.13-.07-.12-.07c-.16-.1-.32-.19-.49-.29-1.29-.77-2.5-1.63-3.61-2.58-1.1-.95-2.11-1.97-3-3.05-.46-.53-.86-1.09-1.27-1.64-.19-.28-.38-.56-.57-.84-.1-.14-.18-.28-.27-.43-.09-.14-.17-.29-.26-.43-.08-.14-.17-.28-.25-.43-.08-.14-.16-.29-.23-.43-.08-.14-.15-.29-.23-.43l-.11-.21-.1-.22c-.14-.29-.28-.58-.41-.86-.13-.29-.24-.58-.36-.87-.06-.14-.12-.29-.17-.43-.05-.14-.1-.29-.15-.43-.05-.14-.1-.29-.15-.43-.05-.14-.1-.28-.14-.43-.09-.29-.17-.57-.26-.85-.02-.07-.04-.14-.06-.21-.02-.07-.03-.14-.05-.21-.03-.14-.07-.28-.1-.42-.03-.14-.07-.28-.1-.42-.02-.07-.03-.14-.05-.21-.01-.07-.03-.14-.04-.21-.05-.28-.11-.55-.16-.82-.06-.27-.08-.54-.12-.8-.04-.26-.07-.53-.1-.78-.02-.26-.04-.52-.06-.77-.02-.25-.05-.5-.05-.75,0-.25-.02-.49-.02-.73,0-.12,0-.24,0-.36,0-.11,0-.23,0-.34,0-.23.01-.45.02-.67,0-.05,0-.11,0-.16v-.08s0-.02,0-.03v-.02s0-.04,0-.04c0-.11.01-.22.02-.33.01-.21.03-.43.04-.63.02-.21.05-.41.07-.61.09-.79.21-1.51.35-2.15.14-.64.28-1.21.42-1.7.03-.12.07-.24.1-.35.03-.11.07-.22.1-.32.07-.2.13-.39.18-.56.11-.33.22-.58.28-.75.06-.17.1-.26.1-.26Z" fill="#fff"/><path d="m171,57.52c-9.13,3.73-21.15,5.99-34.32,5.99s-25-2.23-34.1-5.9l.46-1.39h0s.12-.35.12-.35l2.34-7.08.12-.35.53-1.61c7.81,3.5,18.6,6.19,30.53,6.19s22.92-2.73,30.74-6.29l.53,1.61.12.35,2.35,7.09.12.35.46,1.39Z" fill="url(#linear-gradient-3)"/><path d="m170.54,56.13c-9.4,3.74-21.4,5.79-33.86,5.79s-24.27-2.02-33.64-5.7h0s.12-.35.12-.35c9.33,3.67,21.21,5.68,33.52,5.68s24.38-2.05,33.74-5.77l.12.35Z" fill="#5665af"/><path d="m168.08,48.69c-3.94,1.67-8.45,3-13.43,3.95-5.69,1.09-11.73,1.64-17.97,1.64-11.67,0-22.68-1.95-31.17-5.49l.12-.35c8.45,3.54,19.42,5.48,31.05,5.48s22.8-1.97,31.28-5.57l.12.35Z" fill="#5665af"/><path d="m131.24,21.54h-3.78v-2.33c1.22-.08,2.23-.35,3.04-.79.81-.44,1.39-.99,1.75-1.64h2.33v22.04h-3.34v-17.28Z" fill="#313f84"/><path d="m137.72,37.67c-.99-.98-1.48-2.26-1.48-3.86v-12.03c0-1.59.49-2.88,1.48-3.86.99-.98,2.28-1.46,3.87-1.46s2.89.49,3.87,1.46c.99.98,1.48,2.26,1.48,3.86v12.03c0,1.6-.49,2.88-1.48,3.86-.99.98-2.28,1.46-3.87,1.46s-2.89-.49-3.87-1.46Zm5.35-2.25c.36-.38.54-.91.54-1.61v-12.03c0-.69-.18-1.23-.54-1.61-.36-.38-.85-.57-1.48-.57s-1.12.19-1.48.57c-.36.38-.54.91-.54,1.61v12.03c0,.69.18,1.23.54,1.61.36.38.85.57,1.48.57s1.12-.19,1.48-.57Z" fill="#313f84"/><path d="m128.94,40.72l-1.02,2.92v2.1h-.76v-2.1l-1.02-2.92h.81l.59,1.92.6-1.92h.8Z" fill="#fff"/><path d="m130.93,40.72h2.16v.72h-1.4v1.4h1.11v.72h-1.11v1.47h1.4v.72h-2.16v-5.03Z" fill="#fff"/><path d="m136.74,44.63h-.82l-.17,1.11h-.76l.83-5.03h1.02l.83,5.03h-.78l-.17-1.11Zm-.1-.73l-.31-2.1-.31,2.1h.62Z" fill="#fff"/><path d="m141.42,45.74l-.55-2.07h-.39v2.07h-.76v-5.03h1.19c.36,0,.65.11.87.33.22.22.32.51.32.87v.55c0,.23-.05.43-.14.61-.09.18-.22.32-.39.42l.64,2.25h-.79Zm-.95-2.79h.39c.15,0,.26-.04.34-.12.08-.08.12-.2.12-.34v-.58c0-.15-.04-.26-.12-.34s-.2-.12-.34-.12h-.39v1.51Z" fill="#fff"/><path d="m144.68,45.66c-.19-.11-.33-.25-.43-.44-.1-.19-.15-.4-.15-.64v-.18l.73-.08v.19c0,.18.04.33.13.43s.21.16.36.16.27-.04.36-.13c.09-.09.13-.2.13-.35,0-.16-.05-.32-.14-.47-.09-.15-.28-.35-.56-.62-.37-.35-.63-.65-.76-.88-.14-.23-.2-.49-.2-.77,0-.38.1-.68.31-.9.21-.22.49-.33.85-.33s.64.11.85.34c.21.22.31.53.31.9v.13l-.73.08v-.14c0-.19-.04-.34-.11-.44-.07-.1-.17-.15-.31-.15s-.24.04-.31.12c-.07.08-.11.2-.11.36s.05.31.14.46c.1.15.28.36.55.63.37.37.63.67.76.9.14.23.2.48.2.75,0,.24-.05.45-.15.64-.1.19-.25.33-.43.44-.19.11-.4.16-.64.16s-.45-.05-.64-.16Z" fill="#fff"/><path d="m130.38,20.84h-3.78v-2.33c1.22-.08,2.23-.35,3.04-.79.81-.44,1.39-.99,1.75-1.64h2.33v22.04h-3.34v-17.28Z" fill="#fff"/><path d="m136.86,36.97c-.99-.98-1.48-2.26-1.48-3.86v-12.03c0-1.59.49-2.88,1.48-3.86.99-.98,2.28-1.46,3.87-1.46s2.89.49,3.87,1.46c.99.98,1.48,2.26,1.48,3.86v12.03c0,1.6-.49,2.88-1.48,3.86-.99.98-2.28,1.46-3.87,1.46s-2.89-.49-3.87-1.46Zm5.35-2.25c.36-.38.54-.91.54-1.61v-12.03c0-.69-.18-1.23-.54-1.61-.36-.38-.85-.57-1.48-.57s-1.12.19-1.48.57c-.36.38-.54.91-.54,1.61v12.03c0,.69.18,1.23.54,1.61.36.38.85.57,1.48.57s1.12-.19,1.48-.57Z" fill="#fff"/><path d="m111.46,57.25c-1.34-.43-2.1-1.79-1.64-3.2.46-1.42,1.87-2.06,3.21-1.62,1.34.44,2.09,1.78,1.63,3.19-.46,1.42-1.86,2.07-3.2,1.63Zm.34-1.05c.75.24,1.42-.14,1.69-.97.27-.84-.04-1.53-.8-1.77-.76-.25-1.42.12-1.69.96-.27.83.04,1.53.8,1.78Z" fill="#fff"/><path d="m115.92,53.38l3.13.75-.23.94-1.96-.47-.24,1.01,1.47.35-.22.91-1.47-.35-.47,1.95-1.17-.28,1.16-4.81Z" fill="#fff"/><path d="m123.83,55.95l-1.8-.3-.16.99,1.59.26-.15.92-1.59-.26-.18,1.07,1.8.3-.16.95-2.99-.49.8-4.88,2.99.49-.16.95Z" fill="#fff"/><path d="m126.3,58.73l-1.04,1.42-1.36-.15,1.85-2.34-1.36-2.59,1.4.15.83,1.59,1.03-1.4,1.36.15-1.83,2.32,1.37,2.62-1.4-.15-.84-1.62Z" fill="#fff"/><path d="m131.84,55.63c1.18.05,2.04.75,2.28,1.83l-1.33-.05c-.19-.43-.55-.66-1.01-.68-.74-.03-1.27.5-1.31,1.37-.04.88.45,1.45,1.19,1.48.46.02.84-.18,1.06-.59l1.33.05c-.33,1.06-1.24,1.68-2.42,1.63-1.46-.06-2.45-1.14-2.38-2.62.06-1.48,1.13-2.48,2.59-2.42Z" fill="#fff"/><path d="m137.88,56.71l-1.83.02v1s1.62-.02,1.62-.02v.93s-1.6.02-1.6.02v1.09s1.84-.02,1.84-.02v.97s-3.02.03-3.02.03l-.05-4.95,3.03-.03v.97Z" fill="#fff"/><path d="m139.78,55.65l.21,4.02,1.58-.08.05.93-2.78.14-.26-4.95,1.21-.06Z" fill="#fff"/><path d="m143.07,55.43l.36,4,1.57-.14.08.93-2.77.25-.44-4.93,1.2-.11Z" fill="#fff"/><path d="m148.27,55.79l-1.81.23.13,1,1.6-.21.12.92-1.6.21.14,1.08,1.81-.23.12.96-3.01.39-.63-4.92,3.01-.39.12.96Z" fill="#fff"/><path d="m153.19,53.99l.86,4.87-1.19.21-2.51-2.66.53,3.01-1.19.21-.86-4.87,1.19-.21,2.52,2.67-.53-3.02,1.19-.21Z" fill="#fff"/><path d="m156.19,53.26c1.15-.27,2.16.18,2.68,1.16l-1.29.3c-.29-.37-.71-.49-1.15-.38-.72.17-1.09.82-.9,1.67.2.85.82,1.27,1.54,1.11.45-.1.76-.39.87-.85l1.29-.3c-.03,1.11-.75,1.95-1.9,2.21-1.42.33-2.66-.45-2.99-1.89-.33-1.44.43-2.69,1.86-3.02Z" fill="#fff"/><path d="m162.3,52.72l-1.76.49.27.96,1.55-.43.25.9-1.56.43.29,1.05,1.76-.49.26.93-2.92.81-1.33-4.77,2.92-.81.26.93Z" fill="#fff"/><path d="m111.25,18.32c.72-1.08,1.88-1.49,3.04-1.09l-.82,1.22c-.51-.07-.94.14-1.22.56-.46.68-.26,1.48.54,2.02.8.54,1.62.41,2.07-.27.28-.42.32-.89.05-1.34l.82-1.22c.81.92.87,2.14.14,3.22-.9,1.34-2.48,1.65-3.84.74-1.36-.91-1.68-2.5-.79-3.84Z" fill="#fff"/><path d="m117.1,13.01l-1.38,1.47.8.76,1.22-1.3.75.71-1.22,1.3.87.82,1.38-1.47.78.73-2.3,2.43-3.97-3.75,2.3-2.43.78.73Z" fill="#fff"/><path d="m118.81,10.17l2.74,3.49,1.37-1.08.63.81-2.42,1.9-3.37-4.3,1.05-.82Z" fill="#fff"/><path d="m125.13,7.44l-1.77.96.53.97,1.57-.85.49.9-1.57.85.57,1.05,1.77-.96.51.94-2.94,1.6-2.61-4.8,2.94-1.6.51.94Z" fill="#fff"/><path d="m130.61,10.12l-2.43.74-1.6-5.23,2.35-.72c1.06-.32,1.86.01,2.11.84.19.63-.06,1.16-.52,1.46.65-.06,1.21.36,1.39.95.26.86-.2,1.62-1.3,1.95Zm-1.61-4.11l-.83.25.33,1.09.83-.25c.42-.13.59-.38.48-.74s-.4-.48-.82-.35Zm.71,2l-.92.28.35,1.15.94-.29c.42-.13.61-.4.5-.77-.11-.37-.44-.51-.86-.38Z" fill="#fff"/><path d="m135.1,3.82c1.34-.1,2.06.61,2.14,1.56.05.68-.27,1.36-1.09,1.67l1.43,2.06-1.5.12-1.29-1.97-.32.03.16,2.06-1.33.1-.43-5.45,2.23-.17Zm0,1.11l-.82.06.11,1.35.82-.06c.5-.04.71-.31.68-.74-.03-.4-.29-.65-.78-.61Z" fill="#fff"/><path d="m142.02,8.68l-2.02-.32-.47.9-1.38-.22,2.81-5.09,1.52.24,1.1,5.71-1.39-.22-.17-1Zm-.53-3.15l-.97,1.87,1.33.21-.36-2.08Z" fill="#fff"/><path d="m146.13,5.08l3.89,1.66-.42.98-1.33-.57-1.72,4.04-1.22-.52,1.72-4.04-1.33-.57.42-.98Z" fill="#fff"/><path d="m151.56,7.69l1.12.71-2.94,4.61-1.12-.71,2.93-4.61Z" fill="#fff"/><path d="m158.1,12.87l-3.67,4.05-.99-.9.62-3.99-2.27,2.5-.99-.89,3.67-4.05.99.9-.63,4.01,2.28-2.51.99.9Z" fill="#fff"/><path d="m161.22,19.67l-.87-1.18c.17-.38.11-.8-.19-1.2-.51-.69-1.33-.78-2.1-.22-.81.6-.95,1.42-.38,2.19.39.53.95.69,1.56.49l-1-1.36.79-.58,1.72,2.33-.99.73c-.92.33-2.22.16-3.08-1-.97-1.31-.74-2.92.58-3.89,1.31-.97,2.92-.74,3.89.58.78,1.05.8,2.21.07,3.11Z" fill="#fff"/><rect x="93.24" y="32.01" width=".59" height="23.1" transform="translate(187.06 87.13) rotate(180)" fill="url(#linear-gradient-4)"/><rect x="93.24" y="9.4" width=".59" height="23.1" fill="url(#linear-gradient-5)"/></svg>